<svg width="500" height="500" viewBox="0 0 500 500" fill="none" xmlns="http://www.w3.org/2000/svg">
<path d="M250.201 75L75.0766 145.942L75 354.442L249.53 425L424.712 354.442L425 145.707L250.201 75ZM239.944 249.128L239.719 410.426L160.016 378.199L239.944 249.128ZM153.144 351.982L91.6125 153.184L236.857 216.797L153.144 351.982ZM261.007 249.128L340.628 377.704L261.231 409.68L261.007 249.128ZM263.7 216.157L409.566 152.447L347.807 351.981L263.7 216.157ZM84.815 191.593L137.945 369.276L84.815 347.793V191.593ZM363.203 368.612L415.018 195.327L414.894 347.793L363.203 368.612Z" fill="white"/>
</svg>
