<svg width="200" height="200" viewBox="0 0 200 200" fill="none" xmlns="http://www.w3.org/2000/svg">
<path d="M186.862 80.6681C189.129 74.0305 189.914 66.9989 189.162 60.0431C188.411 53.0874 186.142 46.3675 182.506 40.3325C171.446 21.6164 149.218 11.9885 127.511 16.5115C121.5 10.0109 113.835 5.16249 105.287 2.4532C96.7392 -0.256098 87.6084 -0.730882 78.8118 1.07653C70.0152 2.88394 61.8627 6.90992 55.1729 12.7501C48.4831 18.5903 43.4916 26.0391 40.6998 34.3484C33.6512 35.7538 26.9924 38.6058 21.1683 42.7138C15.3442 46.8217 10.489 52.091 6.92717 58.1694C-4.25282 76.8551 -1.71507 100.427 13.202 116.457C10.9266 123.092 10.1347 130.122 10.8793 137.078C11.6239 144.035 13.8878 150.756 17.5195 156.793C28.5916 175.516 50.834 185.143 72.5547 180.614C77.3304 185.842 83.1983 190.02 89.7668 192.867C96.3353 195.715 103.453 197.168 110.645 197.128C132.895 197.148 152.609 183.183 159.404 162.583C166.452 161.176 173.11 158.323 178.933 154.215C184.757 150.107 189.613 144.839 193.177 138.762C204.222 120.109 201.674 96.6649 186.862 80.6681ZM110.644 184.227C101.762 184.241 93.1594 181.215 86.3432 175.679L87.5426 175.018L127.91 152.363C128.915 151.79 129.749 150.973 130.33 149.992C130.912 149.011 131.221 147.9 131.227 146.767V91.4317L148.294 101.031C148.378 101.072 148.451 101.133 148.506 101.207C148.562 101.281 148.599 101.367 148.614 101.457V147.312C148.57 167.682 131.596 184.185 110.644 184.229V184.227ZM29.0293 150.342C24.5754 142.865 22.9761 134.1 24.5127 125.59L25.712 126.289L66.1192 148.943C67.1191 149.514 68.2574 149.814 69.4167 149.814C70.5761 149.814 71.7144 149.514 72.7143 148.943L122.074 121.276V140.434C122.07 140.533 122.042 140.63 121.994 140.717C121.945 140.804 121.877 140.88 121.795 140.938L80.908 163.866C62.7384 174.042 39.5257 167.991 29.0293 150.342ZM18.3974 64.8543C22.8823 57.3284 29.9615 51.5882 38.3815 48.6498V95.2797C38.3663 96.4064 38.6624 97.5165 39.239 98.494C39.8155 99.4715 40.6514 100.281 41.6593 100.837L90.7795 128.388L73.7133 137.987C73.6209 138.035 73.518 138.06 73.4135 138.06C73.3089 138.06 73.206 138.035 73.1136 137.987L32.307 115.098C14.1734 104.88 7.95498 82.3273 18.3974 64.6595V64.8543ZM158.605 96.5238L109.326 68.701L126.351 59.1418C126.443 59.0942 126.546 59.0692 126.651 59.0692C126.755 59.0692 126.858 59.0942 126.951 59.1418L167.759 82.0685C173.998 85.5691 179.084 90.723 182.423 96.9284C185.762 103.134 187.217 110.135 186.618 117.114C186.019 124.093 183.39 130.763 179.038 136.344C174.687 141.925 168.792 146.188 162.043 148.634V102.002C162.007 100.877 161.672 99.7808 161.07 98.8202C160.467 97.8596 159.618 97.069 158.605 96.5238ZM175.591 71.6931L174.392 70.9934L134.065 48.1449C133.059 47.571 131.914 47.2685 130.748 47.2685C129.581 47.2685 128.436 47.571 127.43 48.1449L78.11 75.8103V56.6524C78.0998 56.5552 78.1167 56.4572 78.1589 56.3685C78.2011 56.2799 78.2671 56.204 78.3498 56.1486L119.156 33.2593C125.411 29.7562 132.562 28.057 139.773 28.3603C146.984 28.6637 153.958 30.957 159.877 34.9722C165.797 38.9874 170.419 44.5584 173.201 51.0335C175.984 57.5087 176.813 64.6204 175.591 71.5368V71.6931ZM68.7973 105.655L51.7311 96.0959C51.6458 96.0457 51.5729 95.9779 51.5176 95.8973C51.4623 95.8167 51.4258 95.7253 51.4109 95.6295V49.8917C51.4204 42.8754 53.4841 36.0068 57.3607 30.0888C61.2373 24.1709 66.7666 19.4481 73.3021 16.4728C79.8375 13.4974 87.1092 12.3924 94.2667 13.287C101.424 14.1815 108.172 17.0387 113.721 21.5243L112.522 22.1855L72.1542 44.8404C71.1496 45.4133 70.3155 46.2305 69.7339 47.2115C69.1523 48.1926 68.8432 49.3039 68.8369 50.4362L68.7973 105.655ZM78.0704 86.2254L100.053 73.9074L122.074 86.2254V110.861L100.132 123.181L78.1112 110.861L78.0704 86.2254Z" fill="#6CFF6C"/>
</svg>
