<svg width="500" height="500" viewBox="0 0 500 500" fill="none" xmlns="http://www.w3.org/2000/svg">
<path opacity="0.2" d="M248.988 75V280.339L77.8115 350.315L75.0771 145.765L248.988 75Z" fill="#47FF47"/>
<path opacity="0.2" d="M250.92 75V280.339L422.096 350.315L424.832 145.765L250.92 75Z" fill="#47FF47"/>
<path d="M250.92 75L425 145.533L251.454 219.579L75 145.913L250.92 75Z" fill="#47FF47"/>
<path opacity="0.5" d="M250.92 280.34L425 350.874L251.454 424.919L75 351.254L250.92 280.34Z" fill="#47FF47"/>
<path d="M84.7474 355.242L75.0771 351.282V145.918H84.8854L84.7474 355.242Z" fill="#47FF47"/>
<path d="M424.833 350.777L415.251 355V145.765H424.833V350.777Z" fill="#47FF47"/>
<path d="M256.362 422.803L251.376 424.87L246.614 422.914L246.496 217.263H256.414L256.362 422.803Z" fill="#47FF47"/>
<path d="M251.254 425L75.1416 351.316L84.8256 347.414L251.254 414.331L415.245 346.966L424.736 350.932L251.254 425Z" fill="#47FF47"/>
<path d="M407.975 349.924L251.002 282.672L90.8703 349.924L84.7114 347.247L251.159 279.365L415.398 347.089L407.975 349.924Z" fill="#47FF47"/>
</svg>
